<svg width="1120" height="710" viewBox="0 0 1120 710" fill="none" xmlns="http://www.w3.org/2000/svg">
<g filter="url(#filter0_d)">
<rect x="30" y="32" width="1059" height="646" rx="16" fill="#E0E0E0"/>
</g>
<path d="M30 66H1089V662C1089 670.837 1081.84 678 1073 678H46C37.1634 678 30 670.837 30 662V66Z" fill="#333333"/>
<path d="M124.992 325.24H134.992V327.72H124.992V325.24ZM136.984 325.24H146.984V327.72H136.984V325.24ZM184.953 325.24H194.953V327.72H184.953V325.24ZM196.945 325.24H206.945V327.72H196.945V325.24ZM448.781 325.24H458.781V327.72H448.781V325.24ZM496.75 325.24H506.75V327.72H496.75V325.24ZM544.719 325.24H554.719V327.72H544.719V325.24ZM784.563 325.24H794.563V327.72H784.563V325.24ZM796.555 325.24H806.555V327.72H796.555V325.24ZM808.547 325.24H818.547V327.72H808.547V325.24ZM856.516 325.24H866.516V327.72H856.516V325.24ZM940.461 325.24H950.461V327.72H940.461V325.24ZM952.453 325.24H962.453V327.72H952.453V325.24ZM964.445 325.24H974.445V327.72H964.445V325.24ZM127.032 331.66L135.412 349.1L132.952 350.24L124.572 332.8L127.032 331.66ZM151.017 331.66L159.397 349.1L156.937 350.24L148.557 332.8L151.017 331.66ZM172.541 349.1L180.941 331.66L183.381 332.8L175.001 350.24L172.541 349.1ZM196.525 349.1L204.925 331.66L207.365 332.8L198.985 350.24L196.525 349.1ZM232.922 349.24H242.922V351.72H232.922V349.24ZM244.914 349.24H254.914V351.72H244.914V349.24ZM256.906 349.24H266.906V351.72H256.906V349.24ZM304.875 349.24H314.875V351.72H304.875V349.24ZM316.867 349.24H326.867V351.72H316.867V349.24ZM364.836 349.24H374.836V351.72H364.836V349.24ZM376.828 349.24H386.828V351.72H376.828V349.24ZM400.813 349.24H410.813V351.72H400.813V349.24ZM443.249 350.1H440.309V331.8H443.249V350.1ZM467.233 350.1H464.293V331.8H467.233V350.1ZM488.978 341C488.978 342.12 489.091 343.12 489.318 344C489.558 344.88 489.944 345.753 490.478 346.62C491.024 347.473 491.784 348.433 492.758 349.5L490.938 351.16C489.244 349.707 487.958 348.173 487.078 346.56C486.211 344.933 485.778 343.08 485.778 341C485.778 338.92 486.211 337.073 487.078 335.46C487.958 333.833 489.244 332.293 490.938 330.84L492.758 332.5C491.398 333.993 490.424 335.38 489.838 336.66C489.264 337.927 488.978 339.373 488.978 341ZM496.75 349.24H506.75V351.72H496.75V349.24ZM514.522 341C514.522 339.373 514.229 337.927 513.642 336.66C513.069 335.38 512.102 333.993 510.742 332.5L512.562 330.84C514.256 332.293 515.536 333.833 516.402 335.46C517.282 337.073 517.722 338.92 517.722 341C517.722 343.08 517.282 344.933 516.402 346.56C515.536 348.173 514.256 349.707 512.562 351.16L510.742 349.5C511.716 348.433 512.469 347.473 513.002 346.62C513.549 345.753 513.936 344.88 514.162 344C514.402 343.12 514.522 342.12 514.522 341ZM539.187 350.1H536.247V331.8H539.187V350.1ZM563.171 350.1H560.231V331.8H563.171V350.1ZM568.703 349.24H578.703V351.72H568.703V349.24ZM616.672 349.24H626.672V351.72H616.672V349.24ZM652.648 349.24H662.648V351.72H652.648V349.24ZM700.617 349.24H710.617V351.72H700.617V349.24ZM712.609 349.24H722.609V351.72H712.609V349.24ZM724.602 349.24H734.602V351.72H724.602V349.24ZM772.15 349.1L780.55 331.66L782.99 332.8L774.61 350.24L772.15 349.1ZM796.555 349.24H806.555V351.72H796.555V349.24ZM808.547 349.24H818.547V351.72H808.547V349.24ZM826.999 350.1H824.059V331.8H826.999V350.1ZM850.983 350.1H848.043V331.8H850.983V350.1ZM874.968 350.1H872.028V331.8H874.968V350.1ZM934.929 350.1H931.989V331.8H934.929V350.1ZM940.461 349.24H950.461V351.72H940.461V349.24ZM964.445 349.24H974.445V351.72H964.445V349.24ZM982.898 350.1H979.958V331.8H982.898V350.1ZM139.024 355.66L147.404 373.1L144.944 374.24L136.564 356.8L139.024 355.66ZM168.629 358.14H171.989L167.989 372H163.949L159.969 358.14H163.449L166.029 369.44L168.629 358.14ZM184.533 373.1L192.933 355.66L195.373 356.8L186.993 374.24L184.533 373.1ZM220.51 373.1L228.91 355.66L231.35 356.8L222.97 374.24L220.51 373.1ZM244.914 373.24H254.914V375.72H244.914V373.24ZM270.938 355.66L279.318 373.1L276.858 374.24L268.478 356.8L270.938 355.66ZM292.463 373.1L300.863 355.66L303.303 356.8L294.923 374.24L292.463 373.1ZM316.867 373.24H326.867V375.72H316.867V373.24ZM335.319 374.1H332.379V355.8H335.319V374.1ZM352.424 373.1L360.824 355.66L363.264 356.8L354.884 374.24L352.424 373.1ZM376.828 373.24H386.828V375.72H376.828V373.24ZM391.08 357.68L392.3 355.3L396.66 357.96L395.8 359.56L391.08 357.68ZM419.265 374.1H416.325V355.8H419.265V374.1ZM443.249 374.1H440.309V355.8H443.249V374.1ZM467.233 374.1H464.293V355.8H467.233V374.1ZM491.218 374.1H488.278V355.8H491.218V374.1ZM515.202 374.1H512.262V355.8H515.202V374.1ZM539.187 374.1H536.247V355.8H539.187V374.1ZM568.703 373.24H578.703V375.72H568.703V373.24ZM587.155 374.1H584.215V355.8H587.155V374.1ZM611.14 374.1H608.2V355.8H611.14V374.1ZM635.124 374.1H632.184V355.8H635.124V374.1ZM647.116 374.1H644.176V355.8H647.116V374.1ZM671.101 374.1H668.161V355.8H671.101V374.1ZM695.085 374.1H692.145V355.8H695.085V374.1ZM700.617 373.24H710.617V375.72H700.617V373.24ZM712.609 373.24H722.609V375.72H712.609V373.24ZM724.602 373.24H734.602V375.72H724.602V373.24ZM743.054 374.1H740.114V355.8H743.054V374.1ZM767.038 374.1H764.098V355.8H767.038V374.1ZM788.783 365C788.783 366.12 788.896 367.12 789.123 368C789.363 368.88 789.749 369.753 790.283 370.62C790.829 371.473 791.589 372.433 792.563 373.5L790.743 375.16C789.049 373.707 787.763 372.173 786.883 370.56C786.016 368.933 785.583 367.08 785.583 365C785.583 362.92 786.016 361.073 786.883 359.46C787.763 357.833 789.049 356.293 790.743 354.84L792.563 356.5C791.203 357.993 790.229 359.38 789.643 360.66C789.069 361.927 788.783 363.373 788.783 365ZM796.555 373.24H806.555V375.72H796.555V373.24ZM808.547 373.24H818.547V375.72H808.547V373.24ZM850.983 374.1H848.043V355.8H850.983V374.1ZM874.968 374.1H872.028V355.8H874.968V374.1ZM880.5 373.24H890.5V375.72H880.5V373.24ZM892.492 373.24H902.492V375.72H892.492V373.24ZM946.921 374.1H943.981V355.8H946.921V374.1ZM970.905 374.1H967.965V355.8H970.905V374.1ZM151.017 379.66L159.397 397.1L156.937 398.24L148.557 380.8L151.017 379.66ZM160.969 397.24H170.969V399.72H160.969V397.24ZM172.541 397.1L180.941 379.66L183.381 380.8L175.001 398.24L172.541 397.1ZM222.97 379.66L231.35 397.1L228.89 398.24L220.51 380.8L222.97 379.66ZM232.922 397.24H242.922V399.72H232.922V397.24ZM244.914 397.24H254.914V399.72H244.914V397.24ZM256.906 397.24H266.906V399.72H256.906V397.24ZM268.478 397.1L276.878 379.66L279.318 380.8L270.938 398.24L268.478 397.1ZM294.923 379.66L303.303 397.1L300.843 398.24L292.463 380.8L294.923 379.66ZM304.875 397.24H314.875V399.72H304.875V397.24ZM316.867 397.24H326.867V399.72H316.867V397.24ZM335.319 398.1H332.379V379.8H335.319V398.1ZM354.884 379.66L363.264 397.1L360.804 398.24L352.424 380.8L354.884 379.66ZM364.836 397.24H374.836V399.72H364.836V397.24ZM376.828 397.24H386.828V399.72H376.828V397.24ZM393.82 391.88C394.447 391.88 394.967 392.087 395.38 392.5C395.794 392.913 396 393.427 396 394.04C396 394.413 395.94 394.787 395.82 395.16C395.7 395.52 395.474 396.067 395.14 396.8L393.7 400.06H391.58L392.6 395.82C392.307 395.633 392.074 395.387 391.9 395.08C391.74 394.76 391.66 394.407 391.66 394.02C391.66 393.42 391.867 392.913 392.28 392.5C392.694 392.087 393.207 391.88 393.82 391.88ZM400.813 397.24H410.813V399.72H400.813V397.24ZM419.265 398.1H416.325V379.8H419.265V398.1ZM443.249 398.1H440.309V379.8H443.249V398.1ZM448.781 397.24H458.781V399.72H448.781V397.24ZM467.233 398.1H464.293V379.8H467.233V398.1ZM491.218 398.1H488.278V379.8H491.218V398.1ZM496.75 397.24H506.75V399.72H496.75V397.24ZM515.202 398.1H512.262V379.8H515.202V398.1ZM546.759 379.66L555.139 397.1L552.679 398.24L544.299 380.8L546.759 379.66ZM556.711 397.24H566.711V399.72H556.711V397.24ZM568.703 397.24H578.703V399.72H568.703V397.24ZM587.155 398.1H584.215V379.8H587.155V398.1ZM618.712 379.66L627.092 397.1L624.632 398.24L616.252 380.8L618.712 379.66ZM628.664 397.24H638.664V399.72H628.664V397.24ZM645.656 391.88C646.283 391.88 646.803 392.087 647.216 392.5C647.63 392.913 647.836 393.427 647.836 394.04C647.836 394.413 647.776 394.787 647.656 395.16C647.536 395.52 647.31 396.067 646.976 396.8L645.536 400.06H643.416L644.436 395.82C644.143 395.633 643.91 395.387 643.736 395.08C643.576 394.76 643.496 394.407 643.496 394.02C643.496 393.42 643.703 392.913 644.116 392.5C644.53 392.087 645.043 391.88 645.656 391.88ZM671.101 398.1H668.161V379.8H671.101V398.1ZM774.61 379.66L782.99 397.1L780.53 398.24L772.15 380.8L774.61 379.66ZM784.563 397.24H794.563V399.72H784.563V397.24ZM796.555 397.24H806.555V399.72H796.555V397.24ZM808.547 397.24H818.547V399.72H808.547V397.24ZM826.999 398.1H824.059V379.8H826.999V398.1ZM850.983 398.1H848.043V379.8H850.983V398.1ZM856.516 397.24H866.516V399.72H856.516V397.24ZM868.508 397.24H878.508V399.72H868.508V397.24ZM880.5 397.24H890.5V399.72H880.5V397.24ZM892.492 397.24H902.492V399.72H892.492V397.24ZM910.944 398.1H908.004V379.8H910.944V398.1ZM934.929 398.1H931.989V379.8H934.929V398.1ZM940.461 397.24H950.461V399.72H940.461V397.24ZM952.453 397.24H962.453V399.72H952.453V397.24ZM964.445 397.24H974.445V399.72H964.445V397.24ZM982.898 398.1H979.958V379.8H982.898V398.1ZM623.132 422.1H620.192V403.8H623.132V422.1ZM628.664 421.24H638.664V423.72H628.664V421.24ZM640.656 421.24H650.656V423.72H640.656V421.24ZM652.228 421.1L660.628 403.66L663.068 404.8L654.688 422.24L652.228 421.1Z" fill="#46AC32"/>
<circle cx="73.5" cy="52.5" r="7.5" fill="#FFC12F"/>
<circle cx="51.5" cy="52.5" r="7.5" fill="#FF6059"/>
<circle cx="95.5" cy="52.5" r="7.5" fill="#28C942"/>
<defs>
<filter id="filter0_d" x="17" y="19" width="1099" height="686" filterUnits="userSpaceOnUse" color-interpolation-filters="sRGB">
<feFlood flood-opacity="0" result="BackgroundImageFix"/>
<feColorMatrix in="SourceAlpha" type="matrix" values="0 0 0 0 0 0 0 0 0 0 0 0 0 0 0 0 0 0 127 0"/>
<feOffset dx="7" dy="7"/>
<feGaussianBlur stdDeviation="10"/>
<feColorMatrix type="matrix" values="0 0 0 0 0 0 0 0 0 0 0 0 0 0 0 0 0 0 0.16 0"/>
<feBlend mode="normal" in2="BackgroundImageFix" result="effect1_dropShadow"/>
<feBlend mode="normal" in="SourceGraphic" in2="effect1_dropShadow" result="shape"/>
</filter>
</defs>
</svg>
